<svg width="49" height="39" viewBox="0 0 49 39" fill="none" xmlns="http://www.w3.org/2000/svg">
<path d="M12.6445 14.963L6.60414 6.30971L12.5841 0.360555H10.168L2.85911 7.75193V0.360555H0.986594V14.963H2.85911V9.85516L5.25512 7.47149L10.4297 14.963H12.6445Z" fill="black"/>
<path d="M33.772 7.89214C33.772 3.1849 30.9733 0 26.6645 0C22.4563 0 19.5972 3.20493 19.5972 7.77196C19.5972 12.339 22.4563 15.3236 26.6846 15.3236C30.9934 15.3236 33.772 12.1787 33.772 7.89214ZM31.8995 7.85208C31.8995 11.3775 29.7853 13.681 26.6846 13.681C23.5637 13.681 21.4697 11.3775 21.4697 7.77196C21.4697 4.16641 23.5637 1.64253 26.6645 1.64253C29.8457 1.64253 31.8995 4.16641 31.8995 7.85208Z" fill="black"/>
<path d="M12.3828 24.3975H10.3894L6.32226 36.7565L2.01346 24.3975H0L5.27526 39H7.28872L12.3828 24.3975Z" fill="black"/>
<path d="M32.4028 39L27.2484 24.3975H24.8322L19.5972 39H21.5906L23.1409 34.6133H28.7987L30.3088 39H32.4028ZM28.2752 33.0508H23.604L26.0202 26.4006L28.2752 33.0508Z" fill="black"/>
<path d="M49 39V37.3575H41.7516V24.3975H39.879V39H49Z" fill="black"/>
</svg>
